<svg id="Layer_1" enable-background="new 0 0 508.601 508.601" height="512" viewBox="0 0 508.601 508.601" width="512" xmlns="http://www.w3.org/2000/svg"><path d="m.779 80.519c-12.708 139.021 132.492 237.691 257.055 174.775 12.708-139.025-132.498-237.689-257.055-174.775z" fill="#91c656"/><path d="m254.27 200.295c-25.261-113.339-150.43-171.832-253.491-119.776-3.197 34.978 4.054 70.315 20.847 101.235 74.012 36.59 157.336 41.658 232.644 18.541z" fill="#9bd65e"/><path d="m236.61 153.418c-45.427-82.865-149.435-116.538-235.831-72.899-1.392 15.232-.8 30.532 1.696 45.506 75.605 30.085 156.396 38.689 234.135 27.393z" fill="#aced70"/><path d="m266.83 242.062c-3.59-2.441-17.12-11.641-108.796-73.971l-2.757-33.155c-.732-8.806-8.466-15.348-17.271-14.619-8.806.732-15.351 8.465-14.619 17.271l.613 7.362-30.43-20.689c-7.307-4.968-17.259-3.072-22.228 4.235-4.968 7.308-3.072 17.259 4.235 22.228l58.77 39.958-15.862 6.117c-8.245 3.18-12.351 12.441-9.171 20.686 2.45 6.352 8.508 10.247 14.932 10.247 3.986 0 1.967.384 42.287-15.166l82.304 55.959c2.754 1.873 5.884 2.77 8.981 2.77 15.712 0 22.019-20.39 9.012-29.233z" fill="#739942"/><circle cx="318.164" cy="187.945" fill="#467efb" r="95.218"/><path d="m394.672 131.263c-17.35-23.38-45.156-38.537-76.507-38.537-52.588 0-95.218 42.631-95.218 95.219 0 32.642 16.433 61.438 41.47 78.593 71.619-4.335 128.584-62.966 130.255-135.275z" fill="#6b97fc"/><path d="m383.873 119.042c-59.943-57.193-160.927-15.259-160.927 68.902 0 17.42 4.683 33.744 12.854 47.789 61.214-21.77 113.098-63.199 148.073-116.691z" fill="#82acfc"/><path d="m223.383 197.038c52.409-24.109 101.604-54.004 146.762-88.873-65.948-43.071-154.352 8.872-146.762 88.873z" fill="#92b9f7"/><circle cx="263.221" cy="352.246" fill="#467efb" r="95.218"/><path d="m339.729 295.564c-17.35-23.38-45.156-38.537-76.507-38.537-52.588 0-95.218 42.631-95.218 95.219 0 32.642 16.433 61.438 41.47 78.593 71.619-4.334 128.584-62.966 130.255-135.275z" fill="#6b97fc"/><path d="m328.93 283.344c-59.943-57.193-160.927-15.259-160.927 68.902 0 17.42 4.683 33.744 12.854 47.789 61.214-21.771 113.098-63.199 148.073-116.691z" fill="#82acfc"/><path d="m168.44 361.339c52.409-24.109 101.604-54.004 146.762-88.873-65.948-43.071-154.352 8.873-146.762 88.873z" fill="#92b9f7"/><circle cx="413.383" cy="309.184" fill="#467efb" r="95.218"/><path d="m489.89 252.502c-17.35-23.38-45.156-38.537-76.507-38.537-52.588 0-95.218 42.631-95.218 95.219 0 32.642 16.433 61.438 41.47 78.593 71.62-4.335 128.584-62.966 130.255-135.275z" fill="#6b97fc"/><path d="m479.092 240.281c-59.943-57.193-160.927-15.259-160.927 68.902 0 17.42 4.683 33.744 12.854 47.789 61.213-21.77 113.097-63.199 148.073-116.691z" fill="#82acfc"/><path d="m318.601 318.277c52.409-24.109 101.604-54.004 146.763-88.873-65.949-43.071-154.353 8.872-146.763 88.873z" fill="#92b9f7"/></svg>